<?xml version="1.0" standalone="no"?>
<!DOCTYPE svg PUBLIC "-//W3C//DTD SVG 20010904//EN" "http://www.w3.org/TR/2001/REC-SVG-20010904/DTD/svg10.dtd">
<svg version="1.0" xmlns="http://www.w3.org/2000/svg"
    width="225.000000pt" height="225.000000pt" viewBox="0 0 225.000000 225.000000"
    preserveAspectRatio="xMidYMid meet">

    <g transform="translate(0.000000,225.000000) scale(0.100000,-0.100000)"
        fill="#000000" stroke="none">
        <path
            d="M970 2078 c0 -120 -2 -124 -68 -144 -31 -9 -86 -29 -122 -46 -36 -17
-80 -37 -98 -44 l-33 -15 -73 70 -72 70 -112 -112 -112 -112 61 -60 c86 -85
85 -83 44 -164 -19 -39 -47 -105 -61 -148 -14 -43 -31 -81 -38 -85 -6 -4 -53
-8 -103 -8 l-93 0 0 -155 0 -155 83 0 c121 0 122 -1 146 -78 11 -37 38 -104
61 -150 22 -46 40 -86 40 -89 0 -3 -31 -37 -70 -77 l-69 -72 112 -112 112
-112 70 70 c38 38 74 70 80 70 6 0 40 -15 75 -34 36 -19 102 -46 146 -61 94
-30 94 -31 94 -161 l0 -74 155 0 155 0 0 93 c0 50 4 97 8 103 4 7 42 24 85 38
43 14 109 42 148 61 81 41 79 42 164 -44 l60 -61 112 112 113 113 -72 72 -71
72 45 98 c25 54 53 123 62 154 19 66 23 69 144 69 l82 0 0 155 0 155 -92 0
c-51 0 -98 4 -104 8 -7 4 -24 42 -38 85 -14 43 -42 109 -61 148 -41 81 -42 79
44 164 l61 60 -112 112 -113 113 -72 -72 -72 -71 -98 45 c-54 25 -123 53 -154
62 -66 19 -69 23 -69 144 l0 82 -155 0 -155 0 0 -82z m323 -385 c146 -42 292
-167 361 -305 88 -181 82 -383 -17 -558 -48 -85 -160 -189 -248 -232 -97 -47
-165 -63 -274 -62 -161 1 -290 57 -411 179 -232 234 -230 592 5 825 130 129
270 185 439 174 51 -3 116 -12 145 -21z" />
        <path
            d="M991 1624 c-223 -60 -381 -268 -381 -501 0 -324 302 -568 622 -502
397 82 545 581 257 868 -127 128 -326 182 -498 135z m319 -239 l0 -35 -65 0
c-36 0 -65 -2 -65 -5 0 -2 8 -20 17 -40 16 -33 20 -35 65 -35 l48 0 0 -35 0
-35 -49 0 c-45 0 -50 -2 -61 -30 -14 -34 -77 -95 -110 -105 -21 -7 -15 -14 66
-96 l89 -89 -27 -27 -27 -27 -115 112 c-63 62 -119 112 -125 112 -6 0 -11 17
-11 39 l0 39 70 4 c56 3 74 8 95 28 14 13 25 27 25 32 0 4 -43 8 -95 8 l-95 0
0 34 c0 30 4 34 31 40 17 3 61 6 97 6 l66 0 -29 30 c-24 25 -38 30 -96 36
l-69 7 0 33 0 34 185 0 185 0 0 -35z" />
    </g>
</svg>