<svg width="100%" height="100%" viewBox="0 0 593 125" version="1.1" xmlns="http://www.w3.org/2000/svg" xmlns:xlink="http://www.w3.org/1999/xlink" xml:space="preserve" xmlns:serif="http://www.serif.com/" style="
                  fill-rule: evenodd;
                  clip-rule: evenodd;
                  stroke-linejoin: round;
                  stroke-miterlimit: 1.41421;
                ">
  <style>
    .blue {
      fill: #003974;
    }

    .red {
      fill: #ed1d24;
    }

    .dark .blue {
      fill: #ffffff;
    }

    .dark .red {
      fill: #ffffff;
    }

    @media (prefers-color-scheme: dark) {
      .blue {
        fill: #ffffff;
      }

      .red {
        fill: #ffffff;
      }

      .light .blue {
        fill: #003974;
      }

      .light .red {
        fill: #ed1d24;
      }
    }
  </style>
  <g>
    <path d="M12.812,62.462c0,-26.85 25.31,-48.618 56.53,-48.618c31.22,0 56.527,21.768 56.527,48.618c0,26.85 -25.307,48.616 -56.527,48.616c-31.22,0 -56.53,-21.766 -56.53,-48.616" style="fill: #003974; fill-rule: nonzero"></path>
    <path d="M61.479,29.571l13.131,-4.34l0.067,70.997l-13.246,4.439l0.048,-71.096Z" style="fill: #ed1d24; fill-rule: nonzero"></path>
    <path d="M111.851,67.473c-1.23,10.162 -6.925,20.416 -19.365,20.437c-7.263,0.013 -12.937,-4.958 -16.862,-11.045l0,-7.044c4.916,2.442 9.509,5.06 15.082,5.14c6.871,0.103 13.078,-2.54 15.646,-7.488l5.499,0Zm-41.579,6.377c-5.707,6.877 -11.221,13.906 -21.554,13.906c-14.593,0 -21.514,-14.109 -21.514,-25.907c0,-11.337 5.411,-24.756 19.626,-24.756c6.165,0 12.106,3.774 15.642,7.764l-0.009,9.622c-2.956,-1.988 -9.579,-3.941 -13.905,-4.015c-9.012,-0.15 -16.964,3.759 -16.823,12.655c0.095,6.129 6.162,10.295 12.202,10.295c9.253,0 14.854,-8.449 19.539,-14.864c1.309,-1.678 4.993,-6.606 5.567,-7.395c5.201,-7.269 11.222,-13.905 21.555,-13.905c12.17,0 19.002,9.809 20.938,19.911l-5.49,0c-2.209,-3.273 -6.46,-5.279 -10.65,-5.279c-9.562,0 -15.276,8.799 -20.058,15.276c0,0 -3.718,5.07 -5.066,6.692" style="fill: #fff; fill-rule: nonzero"></path>
  </g>
  <g>
    <path class="red" d="M195.835,89.654c12.721,0 22.405,-7.395 22.405,-20.111c0,-12.793 -9.684,-20.189 -22.405,-20.189c-12.717,0 -22.406,7.396 -22.406,20.189c0,12.716 9.689,20.111 22.406,20.111m0,-9.315c-6.14,0 -8.652,-5.1 -8.652,-10.796c0,-5.768 2.512,-10.871 8.652,-10.871c6.137,0 8.651,5.103 8.651,10.871c0,5.696 -2.514,10.796 -8.651,10.796" style="fill-rule: nonzero"></path>
    <path class="red" d="M218.02,59.929l7.613,0l0,15.675c0,9.165 2.886,14.416 14.792,14.416c3.326,0 5.839,-0.439 8.351,-0.74l-0.441,-8.651c-1.331,0.221 -2.736,0.522 -4.065,0.522c-4.219,0 -5.326,-2.371 -5.326,-7.027l0,-14.195l9.319,0l0,-9.32l-9.319,0l-0.008,-13.322l-13.079,4.67l0,8.652l-7.837,0l0,9.32Z" style="fill-rule: nonzero"></path>
    <path class="red" d="M295.838,89.135l13.311,0l0,-19.08l0.147,0l10.648,19.08l16.12,0l-14.494,-20.851l13.386,-17.673l-14.57,0l-11.09,16.193l-0.147,0l0,-29.469l-13.311,4.612l0,47.188Z" style="fill-rule: nonzero"></path>
    <path class="red" d="M138.994,88.65l13.31,0l0,-19.08l0.148,0l10.646,19.08l16.119,0l-14.492,-20.851l13.384,-17.673l-14.567,0l-11.09,16.193l-0.148,0l0,-29.469l-13.31,4.393l0,47.407Z" style="fill-rule: nonzero"></path>
    <path class="red" d="M291.115,89.24c-0.599,-3.068 -0.749,-6.137 -0.749,-9.204l0,-14.518c0,-11.897 -8.606,-16.164 -18.561,-16.164c-5.763,0 -10.775,0.821 -15.565,2.768l0.223,9.129c3.743,-2.095 8.084,-2.919 12.424,-2.919c4.865,0 8.833,1.423 8.906,6.734c-1.722,-0.297 -4.116,-0.52 -6.286,-0.52c-7.185,0 -20.131,1.42 -20.131,13.317c0,8.46 6.884,12.274 14.594,12.274c5.537,0 9.278,-2.168 12.347,-7.034l0.15,0c0,2.023 0.221,4.045 0.296,6.137l12.352,0Zm-27.168,-12.345c0,-3.746 3.594,-5.165 8.159,-5.165c2.021,0 3.965,0.148 5.687,0.223c0,4.563 -3.217,9.207 -8.306,9.207c-3.145,0 -5.54,-1.575 -5.54,-4.265" style="fill-rule: nonzero"></path>
  </g>
  <g>
    <path class="blue" d="M362.647,83.997c2.288,1.454 4.965,2.288 8.591,2.288c4.801,0 8.758,-2.458 8.758,-7.975c0,-7.648 -17.848,-8.593 -17.848,-18.803c0,-6.245 5.464,-10.153 12.326,-10.153c1.898,0 4.962,0.28 7.64,1.284l-0.613,3.515c-1.726,-0.952 -4.458,-1.451 -7.082,-1.451c-4.018,0 -8.425,1.672 -8.425,6.695c0,7.809 17.85,7.864 17.85,19.248c0,7.859 -6.748,10.987 -12.772,10.987c-3.794,0 -6.752,-0.781 -8.814,-1.674l0.389,-3.961Z" style="fill-rule: nonzero"></path>
    <path class="blue" d="M410.285,88.066c-2.454,1.008 -5.636,1.566 -8.255,1.566c-9.427,0 -12.944,-6.361 -12.944,-14.895c0,-8.701 4.799,-14.896 11.995,-14.896c8.034,0 11.323,6.47 11.323,14.115l0,1.784l-19.468,0c0,6.022 3.237,10.878 9.374,10.878c2.562,0 6.3,-1.057 7.975,-2.118l0,3.566Zm-1.728,-15.339c0,-4.961 -2.01,-9.871 -7.255,-9.871c-5.186,0 -8.366,5.185 -8.366,9.871l15.621,0Z" style="fill-rule: nonzero"></path>
    <path class="blue" d="M437.617,64.306c-1.895,-0.836 -4.183,-1.451 -6.081,-1.451c-6.861,0 -10.709,4.965 -10.709,11.882c0,6.471 3.903,11.883 10.318,11.883c2.233,0 4.297,-0.503 6.417,-1.286l0.334,3.294c-2.399,0.837 -4.63,1.001 -7.309,1.001c-9.147,0 -13.611,-6.97 -13.611,-14.892c0,-8.76 5.636,-14.895 14.059,-14.895c3.403,0 5.858,0.782 6.861,1.117l-0.279,3.347Z" style="fill-rule: nonzero"></path>
    <path class="blue" d="M466.066,82.265c0,2.178 0,4.411 0.221,6.695l-3.403,0l0,-5.076l-0.11,0c-1.17,2.569 -3.292,5.748 -9.206,5.748c-7.027,0 -9.703,-4.684 -9.703,-10.935l0,-18.188l3.513,0l0,17.298c0,5.355 1.897,8.811 6.75,8.811c6.415,0 8.421,-5.633 8.421,-10.374l0,-15.735l3.517,0l0,21.756Z" style="fill-rule: nonzero"></path>
    <path class="blue" d="M474.876,66.873c0,-3.129 0,-4.3 -0.221,-6.362l3.513,0l0,5.466l0.111,0c1.284,-3.181 3.682,-6.135 7.31,-6.135c0.834,0 1.839,0.166 2.452,0.334l0,3.681c-0.724,-0.223 -1.673,-0.334 -2.566,-0.334c-5.579,0 -7.086,6.251 -7.086,11.382l0,14.059l-3.513,0l0,-22.091Z" style="fill-rule: nonzero"></path>
    <path class="blue" d="M496.967,52.926l-3.513,0l0,-4.684l3.513,0l0,4.684Zm-3.515,7.585l3.511,0l0,28.453l-3.511,0l0,-28.453Z" style="fill-rule: nonzero"></path>
    <path class="blue" d="M518.107,63.525l-6.472,0l0,18.405c0,2.57 0.949,4.69 3.794,4.69c1.337,0 2.233,-0.284 3.235,-0.668l0.223,2.897c-0.839,0.336 -2.565,0.78 -4.295,0.78c-6.249,0 -6.474,-4.295 -6.474,-9.479l0,-16.625l-5.576,0l0,-3.016l5.576,0l0,-6.857l3.517,-1.23l0,8.087l6.472,0l0,3.016Z" style="fill-rule: nonzero"></path>
    <path class="blue" d="M527.921,52.926l-3.513,0l0,-4.684l3.513,0l0,4.684Zm-3.513,7.585l3.513,0l0,28.453l-3.513,0l0,-28.453Z" style="fill-rule: nonzero"></path>
    <path class="blue" d="M555.869,88.066c-2.454,1.008 -5.636,1.566 -8.255,1.566c-9.428,0 -12.943,-6.361 -12.943,-14.895c0,-8.701 4.798,-14.896 11.994,-14.896c8.034,0 11.322,6.47 11.322,14.115l0,1.784l-19.467,0c0,6.022 3.237,10.878 9.374,10.878c2.564,0 6.3,-1.057 7.975,-2.118l0,3.566Zm-1.73,-15.339c0,-4.961 -2.008,-9.871 -7.253,-9.871c-5.186,0 -8.366,5.185 -8.366,9.871l15.619,0Z" style="fill-rule: nonzero"></path>
    <path class="blue" d="M562.505,84.833c2.118,1.06 4.687,1.787 7.417,1.787c3.349,0 6.306,-1.84 6.306,-5.077c0,-6.754 -13.666,-5.689 -13.666,-13.944c0,-5.638 4.572,-7.757 9.257,-7.757c1.507,0 4.52,0.334 7.031,1.285l-0.336,3.069c-1.842,-0.838 -4.351,-1.341 -6.3,-1.341c-3.628,0 -6.141,1.114 -6.141,4.744c0,5.3 14.005,4.627 14.005,13.944c0,6.02 -5.635,8.086 -9.931,8.086c-2.734,0 -5.468,-0.334 -7.976,-1.34l0.334,-3.456Z" style="fill-rule: nonzero"></path>
  </g>
</svg>